<?xml version="1.0"?>
<svg xmlns:rdf="http://www.w3.org/1999/02/22-rdf-syntax-ns#" xmlns="http://www.w3.org/2000/svg" xmlns:cc="http://web.resource.org/cc/" xmlns:xlink="http://www.w3.org/1999/xlink" xmlns:dc="http://purl.org/dc/elements/1.1/" xmlns:svg="http://www.w3.org/2000/svg" id="Layer_1" y="0px" xml:space="preserve" viewBox="0 0 212.903 212.903" version="1.1" enable-background="new 0 0 212.903 212.903" x="0px">
<radialGradient id="SVGID_1_" gradientUnits="userSpaceOnUse" cy="217.86" cx="68.538" r="265.94">
	<stop stop-color="#B0BE52" offset="0"/>
	<stop stop-color="#CDDE60" offset="1"/>
</radialGradient>
<circle cy="106.45" cx="106.45" r="106.45" fill="url(#SVGID_1_)"/>
<path d="m160.82 168.86c-9.714-4.875-19.218-6.908-28.305-9.383-9.114-2.476-17.808-5.336-26.555-11.634-10.865-7.868-21.302-22.464-21.32-44.803 0-4.9 0.506-10.183 1.639-15.86 4.092-20.956 19.343-39.624 32.479-46.565 13.96-7.489 30.201-9.733 44.303-9.725 7.392-0.002 14.166 0.609 19.702 1.357-2.721-2.798-5.59-5.452-8.602-7.938-3.479-0.258-7.202-0.42-11.101-0.421-14.816 0.008-32.156 2.295-47.607 10.556-15.341 8.306-31.31 28.075-36.041 51.368-1.217 6.1-1.775 11.846-1.775 17.229-0.021 24.629 11.737 41.516 24.23 50.48 9.746 7.028 19.495 10.185 28.812 12.71 9.343 2.526 18.259 4.482 26.997 8.883 6.435 3.279 11.486 8.274 14.594 15.005 1.885-1.485 3.718-3.034 5.497-4.642-3.82-7.32-9.68-13.01-16.94-16.62z" fill="#F2F2F2"/>
<metadata><rdf:RDF><cc:Work><dc:format>image/svg+xml</dc:format><dc:type rdf:resource="http://purl.org/dc/dcmitype/StillImage"/><cc:license rdf:resource="http://creativecommons.org/licenses/publicdomain/"/><dc:publisher><cc:Agent rdf:about="http://openclipart.org/"><dc:title>Openclipart</dc:title></cc:Agent></dc:publisher><dc:title>Tennis Ball</dc:title><dc:date>2011-05-20T07:37:46</dc:date><dc:description>A simple illustration of a tennis ball.</dc:description><dc:source>http://openclipart.org/detail/139615/tennis-ball-by-jgm104</dc:source><dc:creator><cc:Agent><dc:title>jgm104</dc:title></cc:Agent></dc:creator><dc:subject><rdf:Bag><rdf:li>ball</rdf:li><rdf:li>clip art</rdf:li><rdf:li>clipart</rdf:li><rdf:li>green</rdf:li><rdf:li>sport</rdf:li><rdf:li>tennis</rdf:li><rdf:li>tennis ball</rdf:li></rdf:Bag></dc:subject></cc:Work><cc:License rdf:about="http://creativecommons.org/licenses/publicdomain/"><cc:permits rdf:resource="http://creativecommons.org/ns#Reproduction"/><cc:permits rdf:resource="http://creativecommons.org/ns#Distribution"/><cc:permits rdf:resource="http://creativecommons.org/ns#DerivativeWorks"/></cc:License></rdf:RDF></metadata></svg>
